<svg width="310" height="150" viewBox="0 0 310 150" fill="none" xmlns="http://www.w3.org/2000/svg">
<path d="M31.8506 0V6.86658H28.028C25.2436 6.86658 23.4502 7.26772 22.648 8.07001C21.8457 8.87228 21.4445 10.8308 21.4445 13.9455V21.7324C21.4445 24.8471 20.8782 27.2776 19.7456 29.0237C18.613 30.7226 16.7488 32.1148 14.1532 33.2003V33.3419C16.7488 34.4273 18.613 35.8431 19.7456 37.5892C20.8782 39.2882 21.4445 41.695 21.4445 44.8098V52.5966C21.4445 55.7113 21.8457 57.6698 22.648 58.4721C23.4502 59.2744 25.2436 59.6756 28.028 59.6756H31.8506V66.5421H23.5682C19.7456 66.5421 16.9848 65.6691 15.2859 63.9229C13.5869 62.1768 12.7374 59.2744 12.7374 55.2158V45.1637C12.7374 42.2377 12.2419 40.1376 11.2509 38.8634C10.2598 37.5892 8.70244 36.9521 6.57875 36.9521H3.74717V29.59H6.57875C8.70244 29.59 10.2598 28.9529 11.2509 27.6787C12.2419 26.4045 12.7374 24.3044 12.7374 21.3784V11.3263C12.7374 7.26772 13.5869 4.36535 15.2859 2.61921C16.9848 0.873072 19.7456 0 23.5682 0H31.8506Z" fill="#FF0000"/>
<path d="M46.9398 2.83158H58.7617L57.3459 38.9342H48.3556L46.9398 2.83158ZM47.6477 54.5079V44.5974H58.0538V54.5079H47.6477Z" fill="white"/>
<path d="M94.9716 2.83158H126.331V10.8308H104.882V24.4224H124.916V32.0676H104.882V54.5079H94.9716V2.83158Z" fill="white"/>
<path d="M148.465 16.9895C154.081 16.9895 158.116 18.0985 160.57 20.3166C163.024 22.4875 164.251 26.0269 164.251 30.935V44.5974C164.251 47.9481 164.605 51.2516 165.313 54.5079H156.605C156.322 52.9505 156.11 51.1336 155.968 49.0571H155.827C154.505 50.992 152.712 52.5022 150.447 53.5877C148.229 54.6731 145.798 55.2158 143.155 55.2158C139.71 55.2158 136.95 54.272 134.873 52.3842C132.844 50.4493 131.829 47.7829 131.829 44.385C131.829 40.2792 133.552 36.9993 136.997 34.5453C140.489 32.0441 145.492 30.7934 152.004 30.7934H155.048V30.5811C155.048 28.0798 154.553 26.3337 153.562 25.3426C152.57 24.3516 150.801 23.8561 148.252 23.8561C143.627 23.8561 139.262 24.9179 135.156 27.0416L133.811 20.175C138.295 18.0513 143.179 16.9895 148.465 16.9895ZM140.465 43.6771C140.465 45.1873 140.914 46.3671 141.81 47.2166C142.707 48.0661 143.934 48.4908 145.492 48.4908C148.182 48.4908 150.447 47.6177 152.287 45.8716C154.128 44.1255 155.048 41.931 155.048 39.2882V36.8813H152.004C148.276 36.8813 145.421 37.5184 143.439 38.7926C141.457 40.0197 140.465 41.6478 140.465 43.6771Z" fill="white"/>
<path d="M176.509 54.5079V1.41579H186.208V54.5079H176.509Z" fill="white"/>
<path d="M223.936 26.6169C220.019 24.8235 216.172 23.9269 212.397 23.9269C208.055 23.9269 205.884 25.2011 205.884 27.7495C205.884 28.9765 206.356 29.9204 207.3 30.5811C208.244 31.2418 209.896 31.7373 212.255 32.0676C217.494 32.8227 221.246 34.1913 223.511 36.1734C225.776 38.1084 226.909 40.7984 226.909 44.2434C226.909 47.6413 225.587 50.3313 222.945 52.3134C220.349 54.2484 216.668 55.2158 211.901 55.2158C206.191 55.2158 201.118 54.036 196.682 51.6763L198.451 44.739C202.463 47.0514 206.781 48.2077 211.406 48.2077C215.512 48.2077 217.565 46.8391 217.565 44.1019C217.565 42.8276 217.14 41.8838 216.29 41.2703C215.441 40.6096 213.789 40.0669 211.335 39.6421C206.144 38.7926 202.416 37.4005 200.15 35.4655C197.932 33.5306 196.823 30.9114 196.823 27.6079C196.823 24.3516 198.098 21.7796 200.646 19.8919C203.242 17.9569 206.993 16.9895 211.901 16.9895C216.81 16.9895 221.411 17.8861 225.705 19.6795L223.936 26.6169Z" fill="white"/>
<path d="M242.015 33.1295H259.287C259.24 30.0619 258.461 27.7259 256.951 26.1213C255.488 24.4696 253.412 23.6437 250.722 23.6437C248.126 23.6437 246.05 24.4696 244.492 26.1213C242.982 27.7731 242.156 30.1091 242.015 33.1295ZM242.015 39.4298C242.251 42.2141 243.312 44.4322 245.2 46.084C247.135 47.6885 249.566 48.4908 252.492 48.4908C255.984 48.4908 259.452 47.6177 262.898 45.8716L265.021 52.3842C260.774 54.272 256.291 55.2158 251.571 55.2158C246.002 55.2158 241.472 53.4933 237.98 50.0482C234.535 46.6031 232.812 41.9546 232.812 36.1026C232.812 30.1563 234.417 25.4842 237.626 22.0863C240.835 18.6884 245.177 16.9895 250.651 16.9895C256.125 16.9895 260.373 18.6176 263.393 21.874C266.461 25.1303 267.994 29.8024 267.994 35.8903C267.994 37.0701 267.924 38.2499 267.782 39.4298H242.015Z" fill="white"/>
<path d="M276.724 0H285.006C288.829 0 291.589 0.873072 293.288 2.61921C294.987 4.36535 295.837 7.26772 295.837 11.3263V21.3784C295.837 24.3044 296.332 26.4045 297.323 27.6787C298.314 28.9529 299.872 29.59 301.995 29.59H304.827V36.9521H301.995C299.872 36.9521 298.314 37.5892 297.323 38.8634C296.332 40.1376 295.837 42.2377 295.837 45.1637V55.2158C295.837 59.2744 294.987 62.1768 293.288 63.9229C291.589 65.6691 288.829 66.5421 285.006 66.5421H276.724V59.6756H280.475C283.26 59.6756 285.053 59.2744 285.855 58.4721C286.705 57.6698 287.13 55.7113 287.13 52.5966V44.8098C287.13 41.695 287.696 39.2882 288.829 37.5892C289.961 35.8431 291.825 34.4273 294.421 33.3419V33.2003C291.825 32.1148 289.961 30.7226 288.829 29.0237C287.696 27.2776 287.13 24.8471 287.13 21.7324V13.9455C287.13 10.8308 286.705 8.87228 285.855 8.07001C285.053 7.26772 283.26 6.86658 280.475 6.86658H276.724V0Z" fill="#FF0000"/>
<path d="M55.0018 112.762V85.847H60.6429V112.762H55.0018Z" fill="white"/>
<path d="M74.7855 94.327H81.3852V97.9034H74.7855V105.757C74.7855 107.207 74.9699 108.19 75.3386 108.706C75.7073 109.198 76.3709 109.444 77.3295 109.444C78.5093 109.444 79.6154 109.235 80.6478 108.817L81.2746 112.393C79.7506 112.885 78.1038 113.13 76.334 113.13C74.0727 113.13 72.4259 112.627 71.3935 111.619C70.3858 110.611 69.8819 108.94 69.8819 106.605V97.9034H65.9V94.327H69.8819V87.3218H74.7855V94.327Z" fill="white"/>
<path d="M94.8869 84.3722L90.7206 94.6957H86.2963L88.7666 84.3722H94.8869Z" fill="white"/>
<path d="M112.324 98.2352C110.284 97.3012 108.281 96.8341 106.314 96.8341C104.053 96.8341 102.922 97.4978 102.922 98.8251C102.922 99.4642 103.168 99.9558 103.66 100.3C104.151 100.644 105.011 100.902 106.24 101.074C108.969 101.467 110.923 102.18 112.103 103.213C113.283 104.22 113.872 105.621 113.872 107.416C113.872 109.185 113.184 110.586 111.808 111.619C110.456 112.627 108.539 113.13 106.056 113.13C103.082 113.13 100.44 112.516 98.1291 111.287L99.0509 107.674C101.14 108.878 103.389 109.48 105.798 109.48C107.936 109.48 109.006 108.768 109.006 107.342C109.006 106.678 108.784 106.187 108.342 105.867C107.9 105.523 107.039 105.24 105.761 105.019C103.057 104.577 101.116 103.852 99.9357 102.844C98.7805 101.836 98.2029 100.472 98.2029 98.7514C98.2029 97.0554 98.8665 95.7158 100.194 94.7326C101.546 93.7248 103.5 93.2209 106.056 93.2209C108.612 93.2209 111.009 93.6879 113.246 94.622L112.324 98.2352Z" fill="white"/>
<path d="M128.698 97.9034V94.327H133.306V92.7416C133.306 90.3574 133.909 88.5508 135.113 87.3218C136.317 86.0928 138.087 85.4783 140.422 85.4783C141.872 85.4783 143.249 85.6627 144.552 86.0314L143.74 89.7183C142.88 89.3496 142.008 89.1653 141.123 89.1653C140.041 89.1653 139.279 89.4357 138.837 89.9764C138.419 90.4926 138.21 91.4143 138.21 92.7416V94.327H144.183V97.9034H138.21V112.762H133.306V97.9034H128.698Z" fill="white"/>
<path d="M152.873 93.5896V105.019C152.873 106.666 153.094 107.797 153.537 108.411C154.004 109.001 154.79 109.296 155.896 109.296C156.978 109.296 157.961 108.755 158.846 107.674C159.755 106.568 160.21 105.277 160.21 103.802V93.5896H165.003V112.762H160.505L160.394 110.07H160.321C159.583 111.029 158.674 111.779 157.592 112.319C156.511 112.86 155.392 113.13 154.237 113.13C152.148 113.13 150.612 112.541 149.628 111.361C148.645 110.156 148.154 108.202 148.154 105.498V93.5896H152.873Z" fill="white"/>
<path d="M170.085 93.5896H174.583L174.657 96.2811H174.731C175.468 95.3225 176.378 94.5728 177.459 94.0321C178.565 93.4913 179.696 93.2209 180.851 93.2209C183.063 93.2209 184.686 93.9092 185.718 95.2856C186.775 96.6375 187.303 98.862 187.303 101.959V112.762H182.584V102.438C182.584 100.324 182.338 98.8988 181.847 98.1614C181.355 97.3995 180.47 97.0185 179.192 97.0185C178.11 97.0185 177.115 97.5715 176.206 98.6776C175.321 99.7837 174.878 101.074 174.878 102.549V112.762H170.085V93.5896Z" fill="white"/>
<path d="M192.193 93.5896H196.691L196.764 96.2811H196.838C197.575 95.3225 198.485 94.5728 199.566 94.0321C200.672 93.4913 201.803 93.2209 202.958 93.2209C205.171 93.2209 206.793 93.9092 207.825 95.2856C208.882 96.6375 209.411 98.862 209.411 101.959V112.762H204.691V102.438C204.691 100.324 204.445 98.8988 203.954 98.1614C203.462 97.3995 202.577 97.0185 201.299 97.0185C200.218 97.0185 199.222 97.5715 198.313 98.6776C197.428 99.7837 196.986 101.074 196.986 102.549V112.762H192.193V93.5896Z" fill="white"/>
<path d="M221.58 107.711H221.654L226.447 93.5896H231.535L220.843 120.873H215.755L219.221 112.762L212.105 93.5896H217.377L221.58 107.711Z" fill="white"/>
<path d="M248.262 106.494H254.382L250.216 116.817H245.792L248.262 106.494Z" fill="white"/>
<path d="M0 121.979H4.79304V132.929H4.86678C6.31698 131.037 8.19733 130.09 10.5078 130.09C12.892 130.09 14.7601 130.938 16.112 132.634C17.4884 134.33 18.1767 136.801 18.1767 140.045C18.1767 143.216 17.4639 145.674 16.0382 147.419C14.6372 149.14 12.7937 150 10.5078 150C8.04985 150 6.09576 148.98 4.64556 146.94H4.57182L4.49808 149.631H0V121.979ZM13.568 140.045C13.568 137.981 13.1747 136.432 12.3882 135.4C11.6262 134.367 10.5447 133.851 9.14364 133.851C7.84092 133.851 6.78399 134.392 5.97286 135.473C5.18631 136.53 4.79304 137.993 4.79304 139.861V140.23C4.79304 142.147 5.18631 143.634 5.97286 144.691C6.78399 145.723 7.84092 146.239 9.14364 146.239C10.4464 146.239 11.5033 145.711 12.3144 144.654C13.1501 143.572 13.568 142.036 13.568 140.045Z" fill="white"/>
<path d="M26.0377 138.497H35.0338C35.0093 136.899 34.6037 135.682 33.8171 134.847C33.0552 133.986 31.9737 133.556 30.5726 133.556C29.2207 133.556 28.1392 133.986 27.3281 134.847C26.5415 135.707 26.1114 136.924 26.0377 138.497ZM26.0377 141.778C26.1606 143.228 26.7136 144.384 27.6968 145.244C28.7046 146.08 29.9704 146.497 31.4944 146.497C33.3132 146.497 35.1199 146.043 36.9142 145.133L38.0203 148.525C35.8081 149.508 33.473 150 31.0151 150C28.1146 150 25.755 149.103 23.9361 147.309C22.1418 145.514 21.2446 143.093 21.2446 140.045C21.2446 136.948 22.0803 134.515 23.7518 132.745C25.4232 130.975 27.6845 130.09 30.5357 130.09C33.387 130.09 35.5992 130.938 37.1723 132.634C38.7699 134.33 39.5688 136.764 39.5688 139.935C39.5688 140.549 39.5319 141.164 39.4582 141.778H26.0377Z" fill="white"/>
<path d="M58.0064 145.059L59.1125 148.636C57.097 149.545 55.0077 150 52.8447 150C49.7722 150 47.302 149.103 45.4339 147.309C43.5659 145.514 42.6318 143.093 42.6318 140.045C42.6318 136.924 43.529 134.49 45.3233 132.745C47.1422 130.975 49.6493 130.09 52.8447 130.09C55.0077 130.09 57.097 130.545 59.1125 131.455L58.0064 135.105C56.4579 134.22 54.8111 133.777 53.0659 133.777C51.3208 133.777 49.9566 134.318 48.9734 135.4C48.0148 136.481 47.5355 138.03 47.5355 140.045C47.5355 142.012 48.0394 143.56 49.0471 144.691C50.0795 145.821 51.4191 146.387 53.0659 146.387C54.8356 146.387 56.4825 145.944 58.0064 145.059Z" fill="white"/>
<path d="M71.5759 130.09C74.5008 130.09 76.6024 130.668 77.8805 131.823C79.1587 132.954 79.7978 134.797 79.7978 137.354V144.47C79.7978 146.215 79.9821 147.935 80.3508 149.631H75.8159C75.6684 148.82 75.5578 147.874 75.484 146.792H75.4103C74.7221 147.8 73.788 148.587 72.6082 149.152C71.453 149.717 70.1871 150 68.8106 150C67.0163 150 65.5784 149.508 64.4969 148.525C63.44 147.517 62.9115 146.129 62.9115 144.359C62.9115 142.221 63.8087 140.512 65.603 139.234C67.4219 137.931 70.0273 137.28 73.4193 137.28H75.0047V137.169C75.0047 135.867 74.7466 134.957 74.2305 134.441C73.7143 133.925 72.7926 133.667 71.4652 133.667C69.0564 133.667 66.7828 134.22 64.6444 135.326L63.9439 131.75C66.2789 130.643 68.8229 130.09 71.5759 130.09ZM67.4096 143.99C67.4096 144.777 67.6431 145.391 68.1101 145.834C68.5771 146.276 69.2162 146.497 70.0273 146.497C71.4284 146.497 72.6082 146.043 73.5668 145.133C74.5254 144.224 75.0047 143.081 75.0047 141.704V140.451H73.4193C71.4775 140.451 69.9905 140.783 68.9581 141.446C67.9258 142.085 67.4096 142.933 67.4096 143.99Z" fill="white"/>
<path d="M89.2513 130.459V141.889C89.2513 143.536 89.4726 144.666 89.915 145.281C90.382 145.871 91.1686 146.166 92.2746 146.166C93.3561 146.166 94.3393 145.625 95.2242 144.543C96.1336 143.437 96.5884 142.147 96.5884 140.672V130.459H101.381V149.631H96.8833L96.7727 146.94H96.699C95.9616 147.898 95.0521 148.648 93.9706 149.189C92.8891 149.73 91.7708 150 90.6155 150C88.5262 150 86.99 149.41 86.0068 148.23C85.0236 147.026 84.532 145.072 84.532 142.368V130.459H89.2513Z" fill="white"/>
<path d="M119.921 135.105C117.881 134.171 115.878 133.704 113.911 133.704C111.65 133.704 110.519 134.367 110.519 135.695C110.519 136.334 110.765 136.825 111.257 137.169C111.748 137.514 112.609 137.772 113.838 137.944C116.566 138.337 118.52 139.05 119.7 140.082C120.88 141.09 121.47 142.491 121.47 144.285C121.47 146.055 120.781 147.456 119.405 148.488C118.053 149.496 116.136 150 113.653 150C110.679 150 108.037 149.386 105.726 148.157L106.648 144.543C108.737 145.748 110.986 146.35 113.395 146.35C115.534 146.35 116.603 145.637 116.603 144.211C116.603 143.548 116.382 143.056 115.939 142.737C115.497 142.393 114.636 142.11 113.358 141.889C110.654 141.446 108.713 140.721 107.533 139.713C106.378 138.706 105.8 137.341 105.8 135.621C105.8 133.925 106.464 132.585 107.791 131.602C109.143 130.594 111.097 130.09 113.653 130.09C116.209 130.09 118.606 130.557 120.843 131.491L119.921 135.105Z" fill="white"/>
<path d="M129.337 138.497H138.333C138.309 136.899 137.903 135.682 137.117 134.847C136.355 133.986 135.273 133.556 133.872 133.556C132.52 133.556 131.439 133.986 130.628 134.847C129.841 135.707 129.411 136.924 129.337 138.497ZM129.337 141.778C129.46 143.228 130.013 144.384 130.996 145.244C132.004 146.08 133.27 146.497 134.794 146.497C136.613 146.497 138.419 146.043 140.214 145.133L141.32 148.525C139.108 149.508 136.773 150 134.315 150C131.414 150 129.054 149.103 127.236 147.309C125.441 145.514 124.544 143.093 124.544 140.045C124.544 136.948 125.38 134.515 127.051 132.745C128.723 130.975 130.984 130.09 133.835 130.09C136.686 130.09 138.899 130.938 140.472 132.634C142.069 134.33 142.868 136.764 142.868 139.935C142.868 140.549 142.831 141.164 142.758 141.778H129.337Z" fill="white"/>
<path d="M159.165 126.404V121.979H164.217V126.404H159.165ZM159.165 149.631V130.459H164.217V149.631H159.165Z" fill="white"/>
<path d="M178.373 131.197H184.973V134.773H178.373V142.626C178.373 144.076 178.557 145.059 178.926 145.576C179.295 146.067 179.958 146.313 180.917 146.313C182.097 146.313 183.203 146.104 184.235 145.686L184.862 149.263C183.338 149.754 181.691 150 179.922 150C177.66 150 176.013 149.496 174.981 148.488C173.973 147.481 173.469 145.809 173.469 143.474V134.773H169.487V131.197H173.469V124.191H178.373V131.197Z" fill="white"/>
<path d="M198.474 121.242L194.308 131.565H189.884L192.354 121.242H198.474Z" fill="white"/>
<path d="M215.911 135.105C213.871 134.171 211.868 133.704 209.902 133.704C207.64 133.704 206.51 134.367 206.51 135.695C206.51 136.334 206.755 136.825 207.247 137.169C207.739 137.514 208.599 137.772 209.828 137.944C212.556 138.337 214.51 139.05 215.69 140.082C216.87 141.09 217.46 142.491 217.46 144.285C217.46 146.055 216.772 147.456 215.395 148.488C214.043 149.496 212.126 150 209.644 150C206.669 150 204.027 149.386 201.717 148.157L202.638 144.543C204.728 145.748 206.977 146.35 209.386 146.35C211.524 146.35 212.593 145.637 212.593 144.211C212.593 143.548 212.372 143.056 211.929 142.737C211.487 142.393 210.627 142.11 209.349 141.889C206.645 141.446 204.703 140.721 203.523 139.713C202.368 138.706 201.79 137.341 201.79 135.621C201.79 133.925 202.454 132.585 203.781 131.602C205.133 130.594 207.087 130.09 209.644 130.09C212.2 130.09 214.596 130.557 216.833 131.491L215.911 135.105Z" fill="white"/>
<path d="M240.986 131.197H247.586V134.773H240.986V142.626C240.986 144.076 241.171 145.059 241.539 145.576C241.908 146.067 242.572 146.313 243.53 146.313C244.71 146.313 245.816 146.104 246.849 145.686L247.475 149.263C245.952 149.754 244.305 150 242.535 150C240.274 150 238.627 149.496 237.594 148.488C236.587 147.481 236.083 145.809 236.083 143.474V134.773H232.101V131.197H236.083V124.191H240.986V131.197Z" fill="white"/>
<path d="M252.682 130.459H257.253L257.327 134.146H257.401C259.588 131.442 262.526 130.09 266.213 130.09V133.999C263.484 133.999 261.358 134.662 259.834 135.99C258.335 137.292 257.585 139.05 257.585 141.262V149.631H252.682V130.459Z" fill="white"/>
<path d="M275.111 130.459V141.889C275.111 143.536 275.332 144.666 275.775 145.281C276.242 145.871 277.028 146.166 278.135 146.166C279.216 146.166 280.199 145.625 281.084 144.543C281.994 143.437 282.448 142.147 282.448 140.672V130.459H287.241V149.631H282.743L282.633 146.94H282.559C281.821 147.898 280.912 148.648 279.83 149.189C278.749 149.73 277.631 150 276.475 150C274.386 150 272.85 149.41 271.867 148.23C270.884 147.026 270.392 145.072 270.392 142.368V130.459H275.111Z" fill="white"/>
<path d="M295.826 138.497H304.822C304.798 136.899 304.392 135.682 303.606 134.847C302.844 133.986 301.762 133.556 300.361 133.556C299.009 133.556 297.928 133.986 297.117 134.847C296.33 135.707 295.9 136.924 295.826 138.497ZM295.826 141.778C295.949 143.228 296.502 144.384 297.485 145.244C298.493 146.08 299.759 146.497 301.283 146.497C303.102 146.497 304.908 146.043 306.703 145.133L307.809 148.525C305.597 149.508 303.261 150 300.804 150C297.903 150 295.543 149.103 293.725 147.309C291.93 145.514 291.033 143.093 291.033 140.045C291.033 136.948 291.869 134.515 293.54 132.745C295.212 130.975 297.473 130.09 300.324 130.09C303.175 130.09 305.388 130.938 306.961 132.634C308.558 134.33 309.357 136.764 309.357 139.935C309.357 140.549 309.32 141.164 309.247 141.778H295.826Z" fill="white"/>
</svg>
